M48
INCH,TZ
T1C0.025
T2C0.032
T3C0.032
T4C0.039
T5C0.071
T6C0.118
T7C0.236
%
G90
G05
T1
X016000Y-013000
X016000Y-014000
X016000Y-015000
X016000Y-016000
X016000Y-017000
X016000Y-018000
X016000Y-019000
X017000Y-013000
X017000Y-017000
X017000Y-018000
X017000Y-019000
X018000Y-013000
X018000Y-017000
X018000Y-018000
X018000Y-019000
X019000Y-011000
X019000Y-012000
X019000Y-013000
X019000Y-014000
X019000Y-017000
X019000Y-018000
X019000Y-019000
X020000Y-011000
X020000Y-012000
X020000Y-013000
X020000Y-014000
X020000Y-015000
X020000Y-016000
X020000Y-017000
X020000Y-018000
X020000Y-019000
X021000Y-011000
X021000Y-012000
X021000Y-013000
X021000Y-014000
X021000Y-015000
X021000Y-016000
X021000Y-017000
X021000Y-018000
X021000Y-019000
X022000Y-011000
X022000Y-012000
X022000Y-013000
X022000Y-017000
X022000Y-018000
X022000Y-019000
X023000Y-011000
X023000Y-012000
X023000Y-013000
X023000Y-017000
X023000Y-018000
X023000Y-019000
X024000Y-013000
X024000Y-017000
X024000Y-018000
X024000Y-019000
X026000Y-013000
X026000Y-017000
X026000Y-018000
X026000Y-019000
X027000Y-011000
X027000Y-012000
X027000Y-013000
X027000Y-017000
X027000Y-018000
X027000Y-019000
X028000Y-011000
X028000Y-012000
X028000Y-013000
X028000Y-017000
X028000Y-018000
X028000Y-019000
X029000Y-011000
X029000Y-012000
X029000Y-013000
X029000Y-014000
X029000Y-015000
X029000Y-016000
X029000Y-017000
X029000Y-018000
X029000Y-019000
X030000Y-011000
X030000Y-012000
X030000Y-013000
X030000Y-014000
X030000Y-015000
X030000Y-016000
X030000Y-017000
X030000Y-018000
X030000Y-019000
X031000Y-011000
X031000Y-012000
X031000Y-013000
X031000Y-017000
X031000Y-018000
X031000Y-019000
X032000Y-013000
X032000Y-017000
X032000Y-018000
X032000Y-019000
X033000Y-013000
X033000Y-017000
X033000Y-018000
X033000Y-019000
X034000Y-013000
X034000Y-014000
X034000Y-015000
X034000Y-016000
X034000Y-017000
X034000Y-018000
X034000Y-019000
T2
X020000Y-021500
X020000Y-023500
T3
X024000Y-023900
X024250Y-022750
X025000Y-022750
X025000Y-023900
X025750Y-022750
X026000Y-023900
T4
X024500Y-011500
X025500Y-011500
T6
X016550Y-010900
X016550Y-023700
X033100Y-010900
X033100Y-023750
T7
X018000Y-015000
X031750Y-015000
T5
X022154Y-014250G85X023846Y-014250
G05
X026154Y-014250G85X027846Y-014250
G05
T0
M30
