G04 (created by PCBNEW (2013-07-07 BZR 4022)-stable) date 12/08/2014 12:32:08*
%MOIN*%
G04 Gerber Fmt 3.4, Leading zero omitted, Abs format*
%FSLAX34Y34*%
G01*
G70*
G90*
G04 APERTURE LIST*
%ADD10C,0.00590551*%
%ADD11C,0.00787402*%
%ADD12C,0.011811*%
%ADD13C,0.0787402*%
%ADD14C,0.0393701*%
%ADD15C,0.012*%
%ADD16C,0.015*%
%ADD17C,0.0106*%
%ADD18C,0.0107*%
%ADD19C,0.01*%
%ADD20C,0.008*%
G04 APERTURE END LIST*
G54D10*
G54D11*
X31500Y-22000D02*
X32250Y-22000D01*
X31500Y-22000D02*
X31500Y-20500D01*
X32250Y-21250D02*
X31500Y-21250D01*
X32250Y-20500D02*
X32250Y-22000D01*
X31500Y-20500D02*
X32250Y-20500D01*
X29000Y-24000D02*
X28250Y-24000D01*
X29000Y-23000D02*
X28250Y-23000D01*
X29000Y-22000D02*
X28250Y-22000D01*
X28250Y-21000D02*
X28500Y-21000D01*
X28250Y-25000D02*
X28250Y-21000D01*
X29000Y-25000D02*
X28250Y-25000D01*
X29000Y-21000D02*
X29000Y-25000D01*
X28500Y-21000D02*
X29000Y-21000D01*
G54D12*
X32751Y-21629D02*
X32835Y-21657D01*
X32864Y-21685D01*
X32892Y-21742D01*
X32892Y-21826D01*
X32864Y-21882D01*
X32835Y-21910D01*
X32779Y-21939D01*
X32554Y-21939D01*
X32554Y-21348D01*
X32751Y-21348D01*
X32807Y-21376D01*
X32835Y-21404D01*
X32864Y-21460D01*
X32864Y-21517D01*
X32835Y-21573D01*
X32807Y-21601D01*
X32751Y-21629D01*
X32554Y-21629D01*
X33145Y-21939D02*
X33145Y-21348D01*
X32531Y-20548D02*
X32531Y-21026D01*
X32559Y-21082D01*
X32587Y-21110D01*
X32643Y-21139D01*
X32756Y-21139D01*
X32812Y-21110D01*
X32840Y-21082D01*
X32868Y-21026D01*
X32868Y-20548D01*
X33150Y-21139D02*
X33150Y-20548D01*
X33487Y-21139D01*
X33487Y-20548D01*
X33768Y-21139D02*
X33768Y-20548D01*
X29265Y-24204D02*
X29293Y-24176D01*
X29350Y-24148D01*
X29490Y-24148D01*
X29546Y-24176D01*
X29575Y-24204D01*
X29603Y-24260D01*
X29603Y-24317D01*
X29575Y-24401D01*
X29237Y-24739D01*
X29603Y-24739D01*
X29968Y-24148D02*
X30025Y-24148D01*
X30081Y-24176D01*
X30109Y-24204D01*
X30137Y-24260D01*
X30165Y-24373D01*
X30165Y-24514D01*
X30137Y-24626D01*
X30109Y-24682D01*
X30081Y-24710D01*
X30025Y-24739D01*
X29968Y-24739D01*
X29912Y-24710D01*
X29884Y-24682D01*
X29856Y-24626D01*
X29828Y-24514D01*
X29828Y-24373D01*
X29856Y-24260D01*
X29884Y-24204D01*
X29912Y-24176D01*
X29968Y-24148D01*
X30531Y-24148D02*
X30587Y-24148D01*
X30643Y-24176D01*
X30671Y-24204D01*
X30699Y-24260D01*
X30728Y-24373D01*
X30728Y-24514D01*
X30699Y-24626D01*
X30671Y-24682D01*
X30643Y-24710D01*
X30587Y-24739D01*
X30531Y-24739D01*
X30474Y-24710D01*
X30446Y-24682D01*
X30418Y-24626D01*
X30390Y-24514D01*
X30390Y-24373D01*
X30418Y-24260D01*
X30446Y-24204D01*
X30474Y-24176D01*
X30531Y-24148D01*
X30953Y-24570D02*
X31234Y-24570D01*
X30896Y-24739D02*
X31093Y-24148D01*
X31290Y-24739D01*
X29603Y-23739D02*
X29265Y-23739D01*
X29434Y-23739D02*
X29434Y-23148D01*
X29378Y-23232D01*
X29321Y-23289D01*
X29265Y-23317D01*
X30137Y-23148D02*
X29856Y-23148D01*
X29828Y-23429D01*
X29856Y-23401D01*
X29912Y-23373D01*
X30053Y-23373D01*
X30109Y-23401D01*
X30137Y-23429D01*
X30165Y-23485D01*
X30165Y-23626D01*
X30137Y-23682D01*
X30109Y-23710D01*
X30053Y-23739D01*
X29912Y-23739D01*
X29856Y-23710D01*
X29828Y-23682D01*
X30531Y-23148D02*
X30587Y-23148D01*
X30643Y-23176D01*
X30671Y-23204D01*
X30699Y-23260D01*
X30728Y-23373D01*
X30728Y-23514D01*
X30699Y-23626D01*
X30671Y-23682D01*
X30643Y-23710D01*
X30587Y-23739D01*
X30531Y-23739D01*
X30474Y-23710D01*
X30446Y-23682D01*
X30418Y-23626D01*
X30390Y-23514D01*
X30390Y-23373D01*
X30418Y-23260D01*
X30446Y-23204D01*
X30474Y-23176D01*
X30531Y-23148D01*
X30953Y-23570D02*
X31234Y-23570D01*
X30896Y-23739D02*
X31093Y-23148D01*
X31290Y-23739D01*
X29603Y-22739D02*
X29265Y-22739D01*
X29434Y-22739D02*
X29434Y-22148D01*
X29378Y-22232D01*
X29321Y-22289D01*
X29265Y-22317D01*
X29968Y-22148D02*
X30025Y-22148D01*
X30081Y-22176D01*
X30109Y-22204D01*
X30137Y-22260D01*
X30165Y-22373D01*
X30165Y-22514D01*
X30137Y-22626D01*
X30109Y-22682D01*
X30081Y-22710D01*
X30025Y-22739D01*
X29968Y-22739D01*
X29912Y-22710D01*
X29884Y-22682D01*
X29856Y-22626D01*
X29828Y-22514D01*
X29828Y-22373D01*
X29856Y-22260D01*
X29884Y-22204D01*
X29912Y-22176D01*
X29968Y-22148D01*
X30531Y-22148D02*
X30587Y-22148D01*
X30643Y-22176D01*
X30671Y-22204D01*
X30699Y-22260D01*
X30728Y-22373D01*
X30728Y-22514D01*
X30699Y-22626D01*
X30671Y-22682D01*
X30643Y-22710D01*
X30587Y-22739D01*
X30531Y-22739D01*
X30474Y-22710D01*
X30446Y-22682D01*
X30418Y-22626D01*
X30390Y-22514D01*
X30390Y-22373D01*
X30418Y-22260D01*
X30446Y-22204D01*
X30474Y-22176D01*
X30531Y-22148D01*
X30953Y-22570D02*
X31234Y-22570D01*
X30896Y-22739D02*
X31093Y-22148D01*
X31290Y-22739D01*
X29606Y-21148D02*
X29325Y-21148D01*
X29296Y-21429D01*
X29325Y-21401D01*
X29381Y-21373D01*
X29521Y-21373D01*
X29578Y-21401D01*
X29606Y-21429D01*
X29634Y-21485D01*
X29634Y-21626D01*
X29606Y-21682D01*
X29578Y-21710D01*
X29521Y-21739D01*
X29381Y-21739D01*
X29325Y-21710D01*
X29296Y-21682D01*
X30000Y-21148D02*
X30056Y-21148D01*
X30112Y-21176D01*
X30140Y-21204D01*
X30168Y-21260D01*
X30196Y-21373D01*
X30196Y-21514D01*
X30168Y-21626D01*
X30140Y-21682D01*
X30112Y-21710D01*
X30056Y-21739D01*
X30000Y-21739D01*
X29943Y-21710D01*
X29915Y-21682D01*
X29887Y-21626D01*
X29859Y-21514D01*
X29859Y-21373D01*
X29887Y-21260D01*
X29915Y-21204D01*
X29943Y-21176D01*
X30000Y-21148D01*
X30421Y-21570D02*
X30703Y-21570D01*
X30365Y-21739D02*
X30562Y-21148D01*
X30759Y-21739D01*
X17075Y-19989D02*
X17075Y-19398D01*
X17356Y-19989D02*
X17356Y-19398D01*
X17693Y-19989D01*
X17693Y-19398D01*
X17974Y-19764D02*
X18424Y-19764D01*
X31575Y-19739D02*
X31575Y-19148D01*
X31856Y-19739D02*
X31856Y-19148D01*
X32193Y-19739D01*
X32193Y-19148D01*
X32474Y-19514D02*
X32924Y-19514D01*
X32699Y-19739D02*
X32699Y-19289D01*
G54D13*
X27750Y-18500D02*
X31250Y-18500D01*
X31250Y-18500D02*
X29750Y-17000D01*
X31250Y-18500D02*
X29750Y-20000D01*
X21000Y-18500D02*
X19500Y-20000D01*
X21000Y-18500D02*
X19500Y-17000D01*
X17250Y-18500D02*
X20750Y-18500D01*
G54D12*
X20653Y-13189D02*
X20653Y-12795D01*
X20653Y-12907D02*
X20681Y-12851D01*
X20709Y-12823D01*
X20766Y-12795D01*
X20822Y-12795D01*
X21244Y-13160D02*
X21187Y-13189D01*
X21075Y-13189D01*
X21019Y-13160D01*
X20991Y-13104D01*
X20991Y-12879D01*
X21019Y-12823D01*
X21075Y-12795D01*
X21187Y-12795D01*
X21244Y-12823D01*
X21272Y-12879D01*
X21272Y-12935D01*
X20991Y-12992D01*
X21525Y-12964D02*
X21975Y-12964D01*
X22256Y-13189D02*
X22256Y-12795D01*
X22256Y-12598D02*
X22228Y-12626D01*
X22256Y-12654D01*
X22284Y-12626D01*
X22256Y-12598D01*
X22256Y-12654D01*
X22537Y-12795D02*
X22537Y-13189D01*
X22537Y-12851D02*
X22565Y-12823D01*
X22622Y-12795D01*
X22706Y-12795D01*
X22762Y-12823D01*
X22790Y-12879D01*
X22790Y-13189D01*
X23072Y-12795D02*
X23072Y-13189D01*
X23072Y-12851D02*
X23100Y-12823D01*
X23156Y-12795D01*
X23240Y-12795D01*
X23297Y-12823D01*
X23325Y-12879D01*
X23325Y-13189D01*
X23690Y-13189D02*
X23634Y-13160D01*
X23606Y-13132D01*
X23578Y-13076D01*
X23578Y-12907D01*
X23606Y-12851D01*
X23634Y-12823D01*
X23690Y-12795D01*
X23775Y-12795D01*
X23831Y-12823D01*
X23859Y-12851D01*
X23887Y-12907D01*
X23887Y-13076D01*
X23859Y-13132D01*
X23831Y-13160D01*
X23775Y-13189D01*
X23690Y-13189D01*
X24084Y-12795D02*
X24225Y-13189D01*
X24365Y-12795D01*
X24843Y-13189D02*
X24843Y-12879D01*
X24815Y-12823D01*
X24759Y-12795D01*
X24646Y-12795D01*
X24590Y-12823D01*
X24843Y-13160D02*
X24787Y-13189D01*
X24646Y-13189D01*
X24590Y-13160D01*
X24562Y-13104D01*
X24562Y-13048D01*
X24590Y-12992D01*
X24646Y-12964D01*
X24787Y-12964D01*
X24843Y-12935D01*
X25040Y-12795D02*
X25265Y-12795D01*
X25124Y-12598D02*
X25124Y-13104D01*
X25153Y-13160D01*
X25209Y-13189D01*
X25265Y-13189D01*
X25462Y-13189D02*
X25462Y-12795D01*
X25462Y-12598D02*
X25434Y-12626D01*
X25462Y-12654D01*
X25490Y-12626D01*
X25462Y-12598D01*
X25462Y-12654D01*
X25828Y-13189D02*
X25771Y-13160D01*
X25743Y-13132D01*
X25715Y-13076D01*
X25715Y-12907D01*
X25743Y-12851D01*
X25771Y-12823D01*
X25828Y-12795D01*
X25912Y-12795D01*
X25968Y-12823D01*
X25996Y-12851D01*
X26024Y-12907D01*
X26024Y-13076D01*
X25996Y-13132D01*
X25968Y-13160D01*
X25912Y-13189D01*
X25828Y-13189D01*
X26277Y-12795D02*
X26277Y-13189D01*
X26277Y-12851D02*
X26306Y-12823D01*
X26362Y-12795D01*
X26446Y-12795D01*
X26502Y-12823D01*
X26531Y-12879D01*
X26531Y-13189D01*
X26812Y-13132D02*
X26840Y-13160D01*
X26812Y-13189D01*
X26784Y-13160D01*
X26812Y-13132D01*
X26812Y-13189D01*
X27346Y-13160D02*
X27290Y-13189D01*
X27177Y-13189D01*
X27121Y-13160D01*
X27093Y-13132D01*
X27065Y-13076D01*
X27065Y-12907D01*
X27093Y-12851D01*
X27121Y-12823D01*
X27177Y-12795D01*
X27290Y-12795D01*
X27346Y-12823D01*
X27684Y-13189D02*
X27627Y-13160D01*
X27599Y-13132D01*
X27571Y-13076D01*
X27571Y-12907D01*
X27599Y-12851D01*
X27627Y-12823D01*
X27684Y-12795D01*
X27768Y-12795D01*
X27824Y-12823D01*
X27852Y-12851D01*
X27880Y-12907D01*
X27880Y-13076D01*
X27852Y-13132D01*
X27824Y-13160D01*
X27768Y-13189D01*
X27684Y-13189D01*
X28133Y-13132D02*
X28162Y-13160D01*
X28133Y-13189D01*
X28105Y-13160D01*
X28133Y-13132D01*
X28133Y-13189D01*
X28668Y-12795D02*
X28668Y-13189D01*
X28415Y-12795D02*
X28415Y-13104D01*
X28443Y-13160D01*
X28499Y-13189D01*
X28583Y-13189D01*
X28640Y-13160D01*
X28668Y-13132D01*
X28949Y-13189D02*
X28949Y-12598D01*
X29005Y-12964D02*
X29174Y-13189D01*
X29174Y-12795D02*
X28949Y-13020D01*
X19814Y-10270D02*
X20095Y-10270D01*
X19758Y-10439D02*
X19954Y-9848D01*
X20151Y-10439D01*
X20629Y-10439D02*
X20348Y-10439D01*
X20348Y-9848D01*
X21107Y-10439D02*
X20826Y-10439D01*
X20826Y-9848D01*
X21304Y-10129D02*
X21501Y-10129D01*
X21585Y-10439D02*
X21304Y-10439D01*
X21304Y-9848D01*
X21585Y-9848D01*
X22148Y-9876D02*
X22092Y-9848D01*
X22007Y-9848D01*
X21923Y-9876D01*
X21867Y-9932D01*
X21839Y-9989D01*
X21810Y-10101D01*
X21810Y-10185D01*
X21839Y-10298D01*
X21867Y-10354D01*
X21923Y-10410D01*
X22007Y-10439D01*
X22064Y-10439D01*
X22148Y-10410D01*
X22176Y-10382D01*
X22176Y-10185D01*
X22064Y-10185D01*
X22767Y-10439D02*
X22570Y-10157D01*
X22429Y-10439D02*
X22429Y-9848D01*
X22654Y-9848D01*
X22710Y-9876D01*
X22738Y-9904D01*
X22767Y-9960D01*
X22767Y-10045D01*
X22738Y-10101D01*
X22710Y-10129D01*
X22654Y-10157D01*
X22429Y-10157D01*
X23132Y-9848D02*
X23245Y-9848D01*
X23301Y-9876D01*
X23357Y-9932D01*
X23385Y-10045D01*
X23385Y-10242D01*
X23357Y-10354D01*
X23301Y-10410D01*
X23245Y-10439D01*
X23132Y-10439D01*
X23076Y-10410D01*
X23020Y-10354D01*
X22992Y-10242D01*
X22992Y-10045D01*
X23020Y-9932D01*
X23076Y-9876D01*
X23132Y-9848D01*
X20081Y-11327D02*
X20053Y-11355D01*
X19968Y-11383D01*
X19912Y-11383D01*
X19828Y-11355D01*
X19772Y-11299D01*
X19743Y-11243D01*
X19715Y-11130D01*
X19715Y-11046D01*
X19743Y-10933D01*
X19772Y-10877D01*
X19828Y-10821D01*
X19912Y-10793D01*
X19968Y-10793D01*
X20053Y-10821D01*
X20081Y-10849D01*
X20334Y-10793D02*
X20334Y-11271D01*
X20362Y-11327D01*
X20390Y-11355D01*
X20447Y-11383D01*
X20559Y-11383D01*
X20615Y-11355D01*
X20643Y-11327D01*
X20671Y-11271D01*
X20671Y-10793D01*
X21290Y-11383D02*
X21093Y-11102D01*
X20953Y-11383D02*
X20953Y-10793D01*
X21178Y-10793D01*
X21234Y-10821D01*
X21262Y-10849D01*
X21290Y-10905D01*
X21290Y-10990D01*
X21262Y-11046D01*
X21234Y-11074D01*
X21178Y-11102D01*
X20953Y-11102D01*
X21881Y-11383D02*
X21684Y-11102D01*
X21543Y-11383D02*
X21543Y-10793D01*
X21768Y-10793D01*
X21824Y-10821D01*
X21853Y-10849D01*
X21881Y-10905D01*
X21881Y-10990D01*
X21853Y-11046D01*
X21824Y-11074D01*
X21768Y-11102D01*
X21543Y-11102D01*
X22134Y-11074D02*
X22331Y-11074D01*
X22415Y-11383D02*
X22134Y-11383D01*
X22134Y-10793D01*
X22415Y-10793D01*
X22668Y-11383D02*
X22668Y-10793D01*
X23006Y-11383D01*
X23006Y-10793D01*
X23202Y-10793D02*
X23540Y-10793D01*
X23371Y-11383D02*
X23371Y-10793D01*
X20306Y-12300D02*
X20390Y-12328D01*
X20531Y-12328D01*
X20587Y-12300D01*
X20615Y-12272D01*
X20643Y-12216D01*
X20643Y-12160D01*
X20615Y-12103D01*
X20587Y-12075D01*
X20531Y-12047D01*
X20418Y-12019D01*
X20362Y-11991D01*
X20334Y-11963D01*
X20306Y-11906D01*
X20306Y-11850D01*
X20334Y-11794D01*
X20362Y-11766D01*
X20418Y-11738D01*
X20559Y-11738D01*
X20643Y-11766D01*
X20896Y-12019D02*
X21093Y-12019D01*
X21178Y-12328D02*
X20896Y-12328D01*
X20896Y-11738D01*
X21178Y-11738D01*
X21431Y-12328D02*
X21431Y-11738D01*
X21768Y-12328D01*
X21768Y-11738D01*
X22021Y-12300D02*
X22106Y-12328D01*
X22246Y-12328D01*
X22303Y-12300D01*
X22331Y-12272D01*
X22359Y-12216D01*
X22359Y-12160D01*
X22331Y-12103D01*
X22303Y-12075D01*
X22246Y-12047D01*
X22134Y-12019D01*
X22078Y-11991D01*
X22049Y-11963D01*
X22021Y-11906D01*
X22021Y-11850D01*
X22049Y-11794D01*
X22078Y-11766D01*
X22134Y-11738D01*
X22274Y-11738D01*
X22359Y-11766D01*
X22612Y-12019D02*
X22809Y-12019D01*
X22893Y-12328D02*
X22612Y-12328D01*
X22612Y-11738D01*
X22893Y-11738D01*
X24500Y-24576D02*
X24443Y-24548D01*
X24359Y-24548D01*
X24275Y-24576D01*
X24218Y-24632D01*
X24190Y-24689D01*
X24162Y-24801D01*
X24162Y-24885D01*
X24190Y-24998D01*
X24218Y-25054D01*
X24275Y-25110D01*
X24359Y-25139D01*
X24415Y-25139D01*
X24500Y-25110D01*
X24528Y-25082D01*
X24528Y-24885D01*
X24415Y-24885D01*
X24781Y-25139D02*
X24781Y-24548D01*
X25118Y-25139D01*
X25118Y-24548D01*
X25399Y-25139D02*
X25399Y-24548D01*
X25540Y-24548D01*
X25624Y-24576D01*
X25681Y-24632D01*
X25709Y-24689D01*
X25737Y-24801D01*
X25737Y-24885D01*
X25709Y-24998D01*
X25681Y-25054D01*
X25624Y-25110D01*
X25540Y-25139D01*
X25399Y-25139D01*
X26695Y-24210D02*
X26779Y-24239D01*
X26920Y-24239D01*
X26976Y-24210D01*
X27004Y-24182D01*
X27032Y-24126D01*
X27032Y-24070D01*
X27004Y-24014D01*
X26976Y-23985D01*
X26920Y-23957D01*
X26807Y-23929D01*
X26751Y-23901D01*
X26723Y-23873D01*
X26695Y-23817D01*
X26695Y-23760D01*
X26723Y-23704D01*
X26751Y-23676D01*
X26807Y-23648D01*
X26948Y-23648D01*
X27032Y-23676D01*
X27285Y-24239D02*
X27285Y-23648D01*
X27876Y-23676D02*
X27820Y-23648D01*
X27735Y-23648D01*
X27651Y-23676D01*
X27595Y-23732D01*
X27567Y-23789D01*
X27539Y-23901D01*
X27539Y-23985D01*
X27567Y-24098D01*
X27595Y-24154D01*
X27651Y-24210D01*
X27735Y-24239D01*
X27792Y-24239D01*
X27876Y-24210D01*
X27904Y-24182D01*
X27904Y-23985D01*
X27792Y-23985D01*
X21896Y-23498D02*
X22093Y-24089D01*
X22290Y-23498D01*
X22740Y-24060D02*
X22684Y-24089D01*
X22571Y-24089D01*
X22515Y-24060D01*
X22487Y-24032D01*
X22459Y-23976D01*
X22459Y-23807D01*
X22487Y-23751D01*
X22515Y-23723D01*
X22571Y-23695D01*
X22684Y-23695D01*
X22740Y-23723D01*
X23246Y-24060D02*
X23190Y-24089D01*
X23078Y-24089D01*
X23021Y-24060D01*
X22993Y-24032D01*
X22965Y-23976D01*
X22965Y-23807D01*
X22993Y-23751D01*
X23021Y-23723D01*
X23078Y-23695D01*
X23190Y-23695D01*
X23246Y-23723D01*
G54D14*
X22000Y-15500D02*
X22000Y-21800D01*
X28050Y-21800D02*
X28050Y-15550D01*
X22000Y-15500D02*
X28000Y-15500D01*
X28000Y-21800D02*
X22000Y-21800D01*
G54D15*
X26500Y-23400D02*
X26500Y-24400D01*
X26500Y-24400D02*
X23500Y-24400D01*
X23500Y-24400D02*
X23500Y-23400D01*
X23500Y-23400D02*
X26500Y-23400D01*
X25500Y-24400D02*
X25500Y-23400D01*
X24000Y-12000D02*
X24000Y-11000D01*
X24000Y-11000D02*
X26000Y-11000D01*
X26000Y-11000D02*
X26000Y-12000D01*
X26000Y-12000D02*
X24000Y-12000D01*
G54D16*
X19500Y-24000D02*
X20500Y-24000D01*
X20500Y-24000D02*
X20500Y-21000D01*
X20500Y-21000D02*
X19500Y-21000D01*
X19500Y-21000D02*
X19500Y-24000D01*
G54D15*
X19750Y-24000D02*
X19500Y-23750D01*
X20392Y-20942D02*
X20392Y-21428D01*
X20421Y-21485D01*
X20450Y-21514D01*
X20507Y-21542D01*
X20621Y-21542D01*
X20678Y-21514D01*
X20707Y-21485D01*
X20735Y-21428D01*
X20735Y-20942D01*
X21335Y-21542D02*
X20992Y-21542D01*
X21164Y-21542D02*
X21164Y-20942D01*
X21107Y-21028D01*
X21050Y-21085D01*
X20992Y-21114D01*
X22564Y-16492D02*
X22564Y-15892D01*
X22850Y-16492D02*
X22850Y-15892D01*
X23192Y-16492D01*
X23192Y-15892D01*
X23478Y-16264D02*
X23935Y-16264D01*
X26064Y-16492D02*
X26064Y-15892D01*
X26350Y-16492D02*
X26350Y-15892D01*
X26692Y-16492D01*
X26692Y-15892D01*
X26978Y-16264D02*
X27435Y-16264D01*
X27207Y-16492D02*
X27207Y-16035D01*
X26214Y-20785D02*
X26242Y-20700D01*
X26242Y-20557D01*
X26214Y-20500D01*
X26185Y-20471D01*
X26128Y-20442D01*
X26071Y-20442D01*
X26014Y-20471D01*
X25985Y-20500D01*
X25957Y-20557D01*
X25928Y-20671D01*
X25900Y-20728D01*
X25871Y-20757D01*
X25814Y-20785D01*
X25757Y-20785D01*
X25700Y-20757D01*
X25671Y-20728D01*
X25642Y-20671D01*
X25642Y-20528D01*
X25671Y-20442D01*
X26242Y-20185D02*
X25842Y-20185D01*
X25642Y-20185D02*
X25671Y-20214D01*
X25700Y-20185D01*
X25671Y-20157D01*
X25642Y-20185D01*
X25700Y-20185D01*
X25842Y-19642D02*
X26328Y-19642D01*
X26385Y-19671D01*
X26414Y-19700D01*
X26442Y-19757D01*
X26442Y-19842D01*
X26414Y-19900D01*
X26214Y-19642D02*
X26242Y-19700D01*
X26242Y-19814D01*
X26214Y-19871D01*
X26185Y-19900D01*
X26128Y-19928D01*
X25957Y-19928D01*
X25900Y-19900D01*
X25871Y-19871D01*
X25842Y-19814D01*
X25842Y-19700D01*
X25871Y-19642D01*
X24671Y-20507D02*
X24642Y-20564D01*
X24642Y-20649D01*
X24671Y-20735D01*
X24728Y-20792D01*
X24785Y-20821D01*
X24900Y-20849D01*
X24985Y-20849D01*
X25100Y-20821D01*
X25157Y-20792D01*
X25214Y-20735D01*
X25242Y-20649D01*
X25242Y-20592D01*
X25214Y-20507D01*
X25185Y-20478D01*
X24985Y-20478D01*
X24985Y-20592D01*
X25242Y-20221D02*
X24642Y-20221D01*
X25242Y-19878D01*
X24642Y-19878D01*
X25242Y-19592D02*
X24642Y-19592D01*
X24642Y-19450D01*
X24671Y-19364D01*
X24728Y-19307D01*
X24785Y-19278D01*
X24900Y-19250D01*
X24985Y-19250D01*
X25100Y-19278D01*
X25157Y-19307D01*
X25214Y-19364D01*
X25242Y-19450D01*
X25242Y-19592D01*
X23692Y-20814D02*
X24292Y-20614D01*
X23692Y-20414D01*
X24264Y-19957D02*
X24292Y-20014D01*
X24292Y-20128D01*
X24264Y-20185D01*
X24235Y-20214D01*
X24178Y-20242D01*
X24007Y-20242D01*
X23950Y-20214D01*
X23921Y-20185D01*
X23892Y-20128D01*
X23892Y-20014D01*
X23921Y-19957D01*
X24264Y-19442D02*
X24292Y-19500D01*
X24292Y-19614D01*
X24264Y-19671D01*
X24235Y-19700D01*
X24178Y-19728D01*
X24007Y-19728D01*
X23950Y-19700D01*
X23921Y-19671D01*
X23892Y-19614D01*
X23892Y-19500D01*
X23921Y-19442D01*
G54D17*
X22737Y-23135D02*
X22737Y-22430D01*
X22979Y-23135D02*
X22797Y-22732D01*
X22979Y-22430D02*
X22737Y-22833D01*
X23383Y-23135D02*
X23140Y-23135D01*
X23262Y-23135D02*
X23262Y-22430D01*
X23221Y-22531D01*
X23181Y-22598D01*
X23140Y-22631D01*
G54D18*
X26184Y-10525D02*
X26184Y-9844D01*
X26347Y-9844D01*
X26387Y-9877D01*
X26408Y-9909D01*
X26428Y-9974D01*
X26428Y-10071D01*
X26408Y-10136D01*
X26387Y-10168D01*
X26347Y-10201D01*
X26184Y-10201D01*
X26591Y-9909D02*
X26612Y-9877D01*
X26652Y-9844D01*
X26754Y-9844D01*
X26795Y-9877D01*
X26815Y-9909D01*
X26836Y-9974D01*
X26836Y-10039D01*
X26815Y-10136D01*
X26571Y-10525D01*
X26836Y-10525D01*
G54D19*
X24104Y-10714D02*
X24161Y-10742D01*
X24257Y-10742D01*
X24295Y-10714D01*
X24314Y-10685D01*
X24333Y-10628D01*
X24333Y-10571D01*
X24314Y-10514D01*
X24295Y-10485D01*
X24257Y-10457D01*
X24180Y-10428D01*
X24142Y-10400D01*
X24123Y-10371D01*
X24104Y-10314D01*
X24104Y-10257D01*
X24123Y-10200D01*
X24142Y-10171D01*
X24180Y-10142D01*
X24276Y-10142D01*
X24333Y-10171D01*
X24504Y-10742D02*
X24504Y-10142D01*
X24504Y-10428D02*
X24733Y-10428D01*
X24733Y-10742D02*
X24733Y-10142D01*
X24923Y-10142D02*
X24923Y-10628D01*
X24942Y-10685D01*
X24961Y-10714D01*
X25000Y-10742D01*
X25076Y-10742D01*
X25114Y-10714D01*
X25133Y-10685D01*
X25152Y-10628D01*
X25152Y-10142D01*
X25342Y-10742D02*
X25342Y-10142D01*
X25571Y-10742D01*
X25571Y-10142D01*
X25704Y-10142D02*
X25933Y-10142D01*
X25819Y-10742D02*
X25819Y-10142D01*
G54D20*
X20173Y-22391D02*
X20192Y-22410D01*
X20211Y-22467D01*
X20211Y-22505D01*
X20192Y-22563D01*
X20154Y-22601D01*
X20116Y-22620D01*
X20040Y-22639D01*
X19983Y-22639D01*
X19907Y-22620D01*
X19869Y-22601D01*
X19830Y-22563D01*
X19811Y-22505D01*
X19811Y-22467D01*
X19830Y-22410D01*
X19850Y-22391D01*
X20211Y-22010D02*
X20211Y-22239D01*
X20211Y-22124D02*
X19811Y-22124D01*
X19869Y-22163D01*
X19907Y-22201D01*
X19926Y-22239D01*
M02*
